PathFileType	4	(X/Y/Z)	E:\Qualisys_Data\Carbon_Farble_Plate\Data\Amateur_Runner\S2\T2\S2T2V22_c3d.trc
DataRate	CameraRate	NumFrames	NumMarkers	Units	OrigDataRate	OrigDataStartFrame	OrigNumFrames
200.000000	200.000000	4	39	mm	200.000000	260	298
Frame#	Time	LSHO			RSHO			LICST			RICST			LASIS			LHEEL			RASIS			LTROC			RTROC			SACR			LTH1			LSK4			LTH2			LTH3			RHM5			LSK2			LTH4			RTH1			LTOE			RTH2			RTH3			RTH4			LLEP			RLEP			LSK1			LSK3			RSK1			LHM5			RSK2			LFT1			RSK3			RSK4			LLME			RLME			RTOE			RHEEL			RFT1			RFT2			LFT2			
		X1	Y1	Z1	X2	Y2	Z2	X3	Y3	Z3	X4	Y4	Z4	X5	Y5	Z5	X6	Y6	Z6	X7	Y7	Z7	X8	Y8	Z8	X9	Y9	Z9	X10	Y10	Z10	X11	Y11	Z11	X12	Y12	Z12	X13	Y13	Z13	X14	Y14	Z14	X15	Y15	Z15	X16	Y16	Z16	X17	Y17	Z17	X18	Y18	Z18	X19	Y19	Z19	X20	Y20	Z20	X21	Y21	Z21	X22	Y22	Z22	X23	Y23	Z23	X24	Y24	Z24	X25	Y25	Z25	X26	Y26	Z26	X27	Y27	Z27	X28	Y28	Z28	X29	Y29	Z29	X30	Y30	Z30	X31	Y31	Z31	X32	Y32	Z32	X33	Y33	Z33	X34	Y34	Z34	X35	Y35	Z35	X36	Y36	Z36	X37	Y37	Z37	X38	Y38	Z38	X39	Y39	Z39	

261	1.3	2524.934814453125	1460.95703125	-462.6442565917969	2492.746826171875	1456.789672851562	-156.9949035644531	2478.302734375	991.0885009765624	-443.040771484375	2486.202392578125	998.1664428710938	-143.0447082519531	2526.962890625	937.8942260742188	-429.8101501464844	2000.036865234375	229.9300231933594	-312.2809448242188	2542.3984375	950.2529296875	-173.0162811279297	2378.497802734375	884.9362182617188	-433.5802307128906	2421.853759765625	899.8605346679688	-120.0723648071289	2387.338623046875	1036.180541992188	-296.9956665039062	2424.008056640625	631.0733032226562	-435.1018371582031	2135.516845703125	360.1252746582031	-408.8526306152344	2344.923583984375	659.2687377929688	-440.9402160644531	2388.37939453125	537.2901000976562	-410.5408020019531	2458.609619140625	217.5634765625	-130.7485504150391	2197.19677734375	437.09423828125	-426.8511962890625	2308.874267578125	569.2346801757812	-413.8584289550781	2674.754150390625	730.8674926757812	-129.0247955322266	2147.904541015625	47.00160980224609	-318.6015625	2610.753173828125	688.076904296875	-118.2152481079102	2729.922607421875	646.9207763671875	-145.0382080078125	2660.983154296875	603.495361328125	-138.9313201904297	2322.129638671875	508.1080627441406	-413.9645690917969	2696.829833984375	588.0989379882812	-139.3089294433594	2259.439208984375	387.9695434570312	-416.538818359375	2196.291015625	310.1538696289062	-405.2959594726562	2654.0830078125	483.764404296875	-140.3981170654297	2094.2021484375	64.3588638305664	-379.308349609375	2601.490478515625	546.1861572265625	-137.1085968017578	1986.187622070312	206.3164520263672	-286.9468078613281	2575.71044921875	418.5798950195312	-149.9836883544922	2526.66015625	481.5197448730469	-148.0061340332031	2056.2197265625	189.8905944824219	-374.4285278320312	2409.4384765625	327.7435607910156	-175.0454864501953	2525.099365234375	177.7301025390625	-181.2383270263672	2357.760498046875	354.4598693847656	-239.4027099609375	2354.163330078125	320.6113586425781	-266.8641662597656	2335.0283203125	333.9260864257812	-215.2482452392578	1974.872924804688	203.6640319824219	-339.6119995117188
262	1.305	2547.540771484375	1465.89111328125	-461.0325317382812	2512.075927734375	1460.947509765625	-157.5995025634766	2503.067626953125	994.9166870117188	-442.7068786621094	2509.535888671875	1002.403686523438	-143.4095153808594	2551.299560546875	941.2882690429688	-429.2167053222656	2019.847412109375	242.6371154785156	-316.6447448730469	2565.94482421875	954.1544189453124	-173.5020141601562	2401.943603515625	890.1107788085938	-434.8490600585938	2445.65966796875	904.6611328125	-119.0984497070312	2412.153076171875	1039.606323242188	-297.6886291503906	2440.983642578125	635.8699951171875	-435.4263000488281	2149.57568359375	367.9062194824219	-411.0000610351562	2363.105224609375	666.3872680664062	-442.0311889648438	2403.174072265625	542.9030151367188	-411.666748046875	2498.156982421875	209.2320404052734	-132.6605834960938	2211.254150390625	445.0248413085938	-427.5332336425781	2324.8525390625	576.6156616210938	-414.7866821289062	2699.815185546875	736.1708374023438	-129.6514739990234	2152.53173828125	45.62071228027344	-319.6177062988281	2635.334228515625	692.3519897460938	-118.4973220825195	2753.88818359375	651.2134399414062	-145.6558227539062	2684.6650390625	608.3677978515625	-139.1778259277344	2335.65625	515.682861328125	-415.1479187011719	2720.393310546875	592.2361450195312	-140.1698455810547	2273.179931640625	395.4322814941406	-418.515380859375	2210.344482421875	317.7900390625	-408.3153076171875	2681.263427734375	484.6524963378906	-140.4357452392578	2100.64990234375	67.44117736816406	-380.5555114746094	2626.181640625	544.0640869140625	-137.6015930175781	2002.942993164062	220.4620971679688	-290.0582275390625	2605.859375	415.6784057617188	-149.8733520507812	2554.545654296875	475.8072814941406	-148.5778198242188	2070.109375	197.1670532226562	-377.3365478515625	2444.772216796875	317.1704711914062	-175.1907043457031	2571.081787109375	174.7266693115234	-180.1880035400391	2392.05029296875	340.4867553710938	-240.3273468017578	2390.810546875	305.6969604492188	-267.6296081542969	2370.131103515625	318.2171020507812	-216.4556121826172	1991.375244140625	218.3812713623047	-343.3006896972656
263	1.31	2570.11865234375	1470.294555664062	-459.4834289550781	2531.7705078125	1464.758544921875	-158.2509918212891	2527.683349609375	998.5654296875	-442.3954162597656	2532.8173828125	1006.678283691406	-143.206298828125	2575.0185546875	943.9415893554688	-428.6398620605469	2039.511596679688	255.1442108154297	-321.2174072265625	2588.807861328125	957.8939819335938	-173.3993530273438	2424.787353515625	895.1270751953125	-435.4729309082031	2469.403564453125	909.1353149414062	-118.8500900268555	2435.48486328125	1043.301147460938	-298.0853576660156	2458.9892578125	640.6786499023438	-436.532470703125	2164.186279296875	375.5341796875	-412.78173828125	2380.846923828125	672.4422607421875	-442.5784606933594	2418.447998046875	548.408447265625	-412.6128845214844	2538.85498046875	202.4540557861328	-131.4638977050781	2225.768310546875	452.282958984375	-428.0849304199219	2340.759521484375	584.110107421875	-415.6050109863281	2723.914794921875	740.4152221679688	-129.8570251464844	2157.359375	44.56835556030273	-320.9378967285156	2659.734130859375	696.5514526367188	-118.1814498901367	2777.430908203125	655.1618041992188	-146.0272827148438	2707.8916015625	613.4857177734375	-139.4318084716797	2351.173828125	523.4249267578125	-415.4379272460938	2743.23583984375	596.745361328125	-140.7293090820312	2287.668212890625	403.4266967773438	-419.595703125	2224.76318359375	325.0718078613281	-410.95166015625	2708.030029296875	485.1088256835938	-140.2488403320312	2106.795654296875	70.19621276855469	-381.5548095703125	2650.490234375	541.8716430664062	-137.5675964355469	2021.125610351562	234.6254272460938	-293.9151000976562	2637.081787109375	412.3376770019531	-150.5020294189453	2582.002197265625	470.3310546875	-148.3974304199219	2084.326416015625	204.8543395996094	-380.369140625	2480.591552734375	306.5166015625	-175.5878753662109	2615.058349609375	171.9311676025391	-179.15771484375	2426.651611328125	326.2780456542969	-241.0596618652344	2428.122314453125	290.7741394042969	-268.1182250976562	2406.123779296875	303.0434875488281	-217.7067108154297	2009.6103515625	232.4329376220703	-347.1398620605469
264	1.315	2592.354248046875	1474.5908203125	-457.3711242675781	2552.216552734375	1468.219848632812	-158.9809112548828	2551.5859375	1001.535034179688	-441.9915466308594	2555.855712890625	1010.59423828125	-143.0546569824219	2598.564697265625	946.4898071289062	-428.1542053222656	2060.076416015625	267.4807739257812	-325.9451293945312	2611.61474609375	961.3377685546876	-173.3627319335938	2448.32373046875	900.2066650390625	-436.3952331542969	2492.7724609375	913.586181640625	-118.5946960449219	2458.679443359375	1047.103271484375	-298.6454467773438	2476.572509765625	645.9114379882812	-437.6507568359375	2179.01611328125	383.0926208496094	-414.0092468261719	2398.927978515625	679.1048583984375	-443.5051879882812	2434.0380859375	554.1100463867188	-414.1900939941406	2582.06884765625	195.7018432617188	-131.6412811279297	2240.968505859375	459.7596435546875	-428.6477966308594	2356.946044921875	590.8499145507812	-415.812744140625	2747.899169921875	743.5534057617188	-130.2171325683594	2161.33154296875	43.55298614501953	-322.6013793945312	2683.171630859375	700.937255859375	-117.6556167602539	2800.8984375	658.2059326171875	-146.605712890625	2731.091796875	617.70556640625	-138.8063049316406	2366.538818359375	529.6670532226562	-416.2664184570312	2765.904541015625	599.6187133789062	-141.1794586181641	2302.390380859375	409.8330688476562	-421.3486938476562	2239.294921875	332.2951965332031	-413.0473937988281	2734.88818359375	485.5561828613281	-139.7962036132812	2112.2109375	73.96781921386719	-382.4750671386719	2674.387939453125	539.8025512695312	-137.0753784179688	2040.6103515625	249.3820343017578	-297.9868774414062	2667.185546875	409.2508239746094	-150.1023712158203	2610.154541015625	464.3838195800781	-149.1501159667969	2098.525634765625	213.0539398193359	-384.0645446777344	2516.4951171875	295.9186706542969	-174.9998016357422	2658.561767578125	169.6622009277344	-177.9903717041016	2462.56884765625	311.4437255859375	-242.745849609375	2465.74560546875	276.701171875	-268.4581298828125	2442.820556640625	287.9443969726562	-218.0669097900391	2028.680297851562	246.4201965332031	-350.8627014160156
